<?xml version="1.0" encoding="UTF-8"?>
<svg width="214px" height="30px" viewBox="0 0 214 30" version="1.1" xmlns="http://www.w3.org/2000/svg" xmlns:xlink="http://www.w3.org/1999/xlink">
    <!-- Generator: Sketch 51 (57462) - http://www.bohemiancoding.com/sketch -->
    <title>Assets/logo</title>
    <desc>Created with Sketch.</desc>
    <defs>
        <polygon id="path-1" points="0.0326101559 26.4285714 22.0799461 26.4285714 22.0799461 0.10975 0.0326101559 0.10975"></polygon>
        <polygon id="path-3" points="0.0674668288 26.4285714 22.1148028 26.4285714 22.1148028 0.10975 0.0674668288 0.10975"></polygon>
        <polygon id="path-5" points="0.188885725 5.07530526e-15 29.8015461 5.07530526e-15 29.8015461 29.9998571 0.188885725 29.9998571 0.188885725 0"></polygon>
    </defs>
    <g id="Symbols" stroke="none" stroke-width="1" fill="none" fill-rule="evenodd">
        <g id="slides/slide1" transform="translate(-150.000000, -60.000000)">
            <g id="Group">
                <g transform="translate(150.000000, 60.000000)">
                    <g id="Assets/logo">
                        <g id="logo">
                            <g id="Group-3" transform="translate(74.170721, 3.571429)">
                                <mask id="mask-2" fill="white">
                                    <use xlink:href="#path-1"></use>
                                </mask>
                                <g id="Clip-2"></g>
                                <path d="M8.9335424,13.2618929 L22.0653259,0.10975 L11.6443396,0.10975 L1.13313606,10.6368929 C-0.334231811,12.10725 -0.334231811,14.51225 1.13313606,15.9826071 L11.5633937,26.4286786 L22.0799461,26.4286786 L8.9335424,13.2618929 Z" id="Fill-1" fill="#787878" mask="url(#mask-2)"></path>
                            </g>
                            <g id="Group-6" transform="translate(47.426471, 3.571429)">
                                <mask id="mask-4" fill="white">
                                    <use xlink:href="#path-3"></use>
                                </mask>
                                <g id="Clip-5"></g>
                                <path d="M13.2138705,13.2765357 L0.082087019,26.4286786 L10.5030733,26.4286786 L21.0142769,15.9015357 C22.4816447,14.4311786 22.4816447,12.0258214 21.0142769,10.5558214 L10.5840192,0.10975 L0.0674668288,0.10975 L13.2138705,13.2765357 Z" id="Fill-4" fill="#7A7C7D" mask="url(#mask-4)"></path>
                            </g>
                            <path d="M213.954003,9.97 L213.954003,3.78428571 L192.180974,3.78428571 L192.180974,0.000714285714 L184.337776,0.000714285714 L184.337776,3.78428571 L179.630075,3.78428571 L179.630075,9.97 L184.337776,9.97 L184.337776,22.1542857 C184.337776,23.5360714 184.337776,24.5532143 184.615917,25.29 C184.798847,26.3989286 185.351562,27.3228571 186.185269,28.0603571 C187.381629,29.26 189.411696,30 192.08933,30 L213.954003,30 L213.954003,23.8160714 L195.872037,23.8160714 C194.577258,23.8160714 193.655473,23.6303571 193.102759,23.1696429 C192.458757,22.6146429 192.180974,21.5992857 192.180974,20.1232143 L192.180974,9.97 L213.954003,9.97 Z" id="Fill-7" fill="#619BB9"></path>
                            <g id="Group-11" transform="translate(147.984852, 0.000000)">
                                <mask id="mask-6" fill="white">
                                    <use xlink:href="#path-5"></use>
                                </mask>
                                <g id="Clip-10"></g>
                                <path d="M9.04515508,23.1680714 C8.30630059,22.6148571 8.02816038,21.5991429 8.02816038,20.1212857 L8.02816038,-0.000142857143 L0.188885725,-0.000142857143 L0.188885725,22.1523571 C0.188885725,23.5359286 0.280172766,24.5534286 0.371816398,25.2898571 C0.649956601,26.3973571 1.20231452,27.3227143 2.03245605,28.0587857 C3.22881551,29.2609286 5.2628049,29.9998571 7.93687334,29.9998571 L29.8015461,29.9998571 L29.8015461,23.8141429 L11.7192235,23.8141429 C10.4280111,23.8141429 9.50586936,23.6302143 9.04515508,23.1680714" id="Fill-9" fill="#619BB9" mask="url(#mask-6)"></path>
                            </g>
                            <path d="M8.63739441,9.87846429 L16.5996926,9.87846429 L20.474043,9.87846429 L42.4396307,9.87846429 L42.4396307,3.60025 L8.48691342,3.60025 C6.82591718,3.69275 5.3517741,3.96917857 4.14863943,4.70667857 C2.85885338,5.53810714 1.84221528,6.55560714 1.10835305,7.75132143 C0.459002654,8.95275 0.0895754091,10.43025 7.13180009e-05,12.0916786 L7.13180009e-05,21.5991786 C7.13180009e-05,23.2606071 0.365932663,24.7381071 1.10835305,26.03025 C1.84221528,27.32275 2.76578339,28.2470357 3.96535217,28.8909643 C5.25692116,29.63025 6.73463014,29.9998929 8.48691342,29.9998929 L42.4396307,29.9998929 L42.4396307,23.7506071 L8.63739441,23.8409643 C7.64108193,23.8409643 6.82591718,23.0245357 6.82591718,22.0266786 L6.82591718,19.78025 C6.93752985,19.78025 34.0986339,19.7856071 34.0986339,19.7856071 L34.13251,13.9391786 L8.63739441,13.9391786 L6.82591718,13.9391786 L6.82591718,11.69275 C6.82591718,10.6948929 7.64108193,9.87846429 8.63739441,9.87846429" id="Fill-12" fill="#619BB9"></path>
                            <path d="M134.514522,23.8141786 L114.622505,23.8141786 L114.622505,23.8313214 L108.923127,23.8313214 C107.827682,23.8313214 106.930859,22.9334643 106.930859,21.8359643 C106.930859,20.7388214 107.827682,19.8409643 108.923127,19.8409643 L114.622505,19.8409643 L114.622505,19.8434643 L134.514522,19.8434643 L134.514522,23.8141786 Z M141.896648,9.78239286 C141.527221,8.39917857 140.791932,7.19882143 139.592007,6.18310714 C137.836158,4.61596429 135.348229,3.78417857 132.209881,3.78417857 L100.841371,3.78417857 L100.841371,9.85739286 L132.705541,9.87775 C133.701853,9.87775 134.517018,10.6941786 134.517018,11.6920357 L134.517018,13.9381071 L134.514522,13.9381071 L134.514522,13.9391786 L107.301712,13.9391786 C104.807009,13.9391786 102.776585,14.58525 101.302442,15.9684643 C99.8297252,17.3520357 98.9942349,19.3813214 98.9942349,21.8763214 C98.9942349,24.4584643 99.8297252,26.3970357 101.302442,27.7848929 C102.685298,29.2598929 104.807009,29.9998929 107.301712,29.9998929 L142.360928,29.9998929 L142.360928,13.9391786 C142.360928,12.1834643 142.266075,10.7059643 141.896648,9.78239286 L141.896648,9.78239286 Z" id="Fill-14" fill="#619BB9"></path>
                        </g>
                    </g>
                </g>
            </g>
        </g>
    </g>
</svg>